# xmcd
#
# Track frame offsets:
#	150
#	13031
#	26256
#	41105
#	60650
#	76543
#	91668
#	106233
#	125775
#	140385
#	156174
#	171380
#	184740
#	199207
#	211107
#	227148
#	238763
#
# Disc length: 3351 seconds
#
# Revision: 1
# Processed by: cddbd v1.5.2PL0 Copyright (c) Steve Scherf et al.
# Submitted via: audiograbber 1.83.01
#
DISCID=dc0d1511
DTITLE=LeDoux,Chris - American Cowboy [CD3]
DYEAR=1994
DGENRE=Country
TTITLE0=Workin' Man's Dollar
TTITLE1=Cadillac Ranch
TTITLE2=Call Of The Wild
TTITLE3=Seventeen
TTITLE4=Hooked On An 8 Second Ride
TTITLE5=Cadillac Cowboy
TTITLE6=Look At You Girl
TTITLE7=Little Long-Haired Outlaw (1992)
TTITLE8=Even Cowboys Like A Little Rock And Roll
TTITLE9=For Your Love
TTITLE10=Wild And Wooly (1993)
TTITLE11=Get Back On That Pony
TTITLE12=She's Tough
TTITLE13=Powder River Home
TTITLE14=Western Skies
TTITLE15=Two In A Million
TTITLE16=Couldn't Help Fallin' (For You)
EXTD=
EXTT0=
EXTT1=
EXTT2=
EXTT3=
EXTT4=
EXTT5=
EXTT6=
EXTT7=
EXTT8=
EXTT9=
EXTT10=
EXTT11=
EXTT12=
EXTT13=
EXTT14=
EXTT15=
EXTT16=
PLAYORDER=
